<svg width="75" height="109" viewBox="0 0 75 109" fill="none" xmlns="http://www.w3.org/2000/svg">
<g filter="url(#filter0_d_1159_21)">
<path d="M61.1525 10.1264C48.0571 -2.07599 26.9419 -2.07599 13.8465 10.1264C0.751039 22.3288 0.751039 42.0708 13.8465 54.2732C13.8465 54.2732 37.4995 75.9002 37.4995 100.9C37.4995 75.9002 61.1525 54.2732 61.1525 54.2732C74.248 42.17 74.248 22.3288 61.1525 10.1264Z" fill="white"/>
<path d="M51.712 46.1386C51.1029 42.8648 51.8135 39.2934 51.712 35.9204C51.6105 32.1505 51.0014 28.4799 51.0014 24.8093C51.0014 21.8331 51.509 18.6585 50.4938 15.7815C50.5953 15.4839 50.5953 15.087 50.6969 14.7894C51.0014 13.3013 46.0272 14.095 45.3166 15.3847C44.809 15.7815 44.606 16.2775 44.809 16.6743C44.9105 16.7736 44.9105 16.8728 44.9105 17.0712C43.9969 21.5355 42.6772 25.8013 41.1544 30.1664C40.5453 31.8529 39.9363 33.4402 39.3272 35.0275C38.515 33.5394 37.7029 31.9521 36.9923 30.3648C35.0635 25.6029 33.2363 20.7418 30.9014 16.1783C31.206 14.095 26.3332 14.2934 25.4196 16.1783C24.3029 18.5593 24.4044 20.9402 24.8105 23.4204C25.2166 26.2974 25.3181 29.0751 25.3181 31.9521C25.4196 37.5077 25.8257 42.964 25.9272 48.5196C25.4196 49.1148 25.3181 49.7101 25.8257 50.4045C26.0287 50.7021 26.3332 50.9005 26.6378 51.1982C27.9575 52.1902 31.612 51.3966 31.612 49.4124C31.612 43.6585 31.206 38.0037 31.0029 32.2497C31.0029 31.6545 31.0029 31.1585 31.0029 30.5632C31.1044 30.7616 31.206 30.9601 31.206 31.1585C32.1196 33.341 33.0332 35.5236 34.3529 37.6069C35.5711 39.6902 36.1802 41.8728 36.8908 44.0553C36.5863 44.3529 36.4847 44.6505 36.5863 45.0474C36.4847 45.345 36.6878 45.4442 36.9923 45.5434C37.906 46.337 39.6317 45.9402 40.5453 45.5434C40.9514 45.345 41.3575 45.1466 41.7635 44.9482C42.2711 44.6505 42.9817 43.9561 42.7787 43.3609C42.7787 43.2617 42.6772 43.0632 42.6772 42.964C43.3878 41.1783 43.6923 39.3926 44.0984 37.5077C44.5044 35.5236 45.215 33.6386 45.9256 31.7537C46.0272 32.6466 46.0272 33.4402 46.1287 34.3331C46.4332 37.9045 46.1287 41.3767 46.1287 44.9482C46.1287 46.1386 46.2302 47.2299 46.4332 48.3212C46.5347 48.8172 46.9408 50.8013 46.8393 50.9005C45.9256 51.6942 46.2302 52.6863 47.3469 52.8847C48.6666 53.1823 50.2908 52.7855 51.3059 51.8926C52.9302 50.5037 52.1181 48.1228 51.712 46.1386Z" fill="#6BC6B3"/>
</g>
<defs>
<filter id="filter0_d_1159_21" x="0.0249023" y="0.974609" width="74.9492" height="107.926" filterUnits="userSpaceOnUse" color-interpolation-filters="sRGB">
<feFlood flood-opacity="0" result="BackgroundImageFix"/>
<feColorMatrix in="SourceAlpha" type="matrix" values="0 0 0 0 0 0 0 0 0 0 0 0 0 0 0 0 0 0 127 0" result="hardAlpha"/>
<feOffset dy="4"/>
<feGaussianBlur stdDeviation="2"/>
<feComposite in2="hardAlpha" operator="out"/>
<feColorMatrix type="matrix" values="0 0 0 0 0 0 0 0 0 0 0 0 0 0 0 0 0 0 0.25 0"/>
<feBlend mode="normal" in2="BackgroundImageFix" result="effect1_dropShadow_1159_21"/>
<feBlend mode="normal" in="SourceGraphic" in2="effect1_dropShadow_1159_21" result="shape"/>
</filter>
</defs>
</svg>
